<?xml version="1.0" encoding="UTF-8" standalone="no"?>
<!-- Created with Inkscape (http://www.inkscape.org/) -->

<svg
   xmlns:rendltx="http://NOTSET"
   xmlns:dc="http://purl.org/dc/elements/1.1/"
   xmlns:cc="http://creativecommons.org/ns#"
   xmlns:rdf="http://www.w3.org/1999/02/22-rdf-syntax-ns#"
   xmlns:svg="http://www.w3.org/2000/svg"
   xmlns="http://www.w3.org/2000/svg"
   xmlns:xlink="http://www.w3.org/1999/xlink"
   xmlns:sodipodi="http://sodipodi.sourceforge.net/DTD/sodipodi-0.dtd"
   xmlns:inkscape="http://www.inkscape.org/namespaces/inkscape"
   width="297mm"
   height="210mm"
   viewBox="0 0 297 210"
   version="1.1"
   id="svg8"
   inkscape:version="0.92.4 (5da689c313, 2019-01-14)"
   sodipodi:docname="BJ.svg">
  <defs
     id="defs2">
    <marker
       inkscape:stockid="TriangleOutL"
       orient="auto"
       refY="0.0"
       refX="0.0"
       id="TriangleOutL"
       style="overflow:visible"
       inkscape:isstock="true">
      <path
         id="path4701"
         d="M 5.77,0.0 L -2.88,5.0 L -2.88,-5.0 L 5.77,0.0 z "
         style="fill-rule:evenodd;stroke:#000000;stroke-width:1pt;stroke-opacity:1;fill:#000000;fill-opacity:1"
         transform="scale(0.8)" />
    </marker>
    <marker
       inkscape:stockid="Arrow1Lend"
       orient="auto"
       refY="0.0"
       refX="0.0"
       id="Arrow1Lend"
       style="overflow:visible;"
       inkscape:isstock="true">
      <path
         id="path4562"
         d="M 0.0,0.0 L 5.0,-5.0 L -12.5,0.0 L 5.0,5.0 L 0.0,0.0 z "
         style="fill-rule:evenodd;stroke:#000000;stroke-width:1pt;stroke-opacity:1;fill:#000000;fill-opacity:1"
         transform="scale(0.8) rotate(180) translate(12.5,0)" />
    </marker>
    <marker
       inkscape:stockid="Arrow2Lend"
       orient="auto"
       refY="0.0"
       refX="0.0"
       id="Arrow2Lend"
       style="overflow:visible;"
       inkscape:isstock="true">
      <path
         id="path4580"
         style="fill-rule:evenodd;stroke-width:0.625;stroke-linejoin:round;stroke:#000000;stroke-opacity:1;fill:#000000;fill-opacity:1"
         d="M 8.7185878,4.0337352 L -2.2072895,0.016013256 L 8.7185884,-4.0017078 C 6.9730900,-1.6296469 6.9831476,1.6157441 8.7185878,4.0337352 z "
         transform="scale(1.1) rotate(180) translate(1,0)" />
    </marker>
    <marker
       inkscape:stockid="Arrow1Send"
       orient="auto"
       refY="0.0"
       refX="0.0"
       id="Arrow1Send"
       style="overflow:visible;"
       inkscape:isstock="true">
      <path
         id="path4574"
         d="M 0.0,0.0 L 5.0,-5.0 L -12.5,0.0 L 5.0,5.0 L 0.0,0.0 z "
         style="fill-rule:evenodd;stroke:#000000;stroke-width:1pt;stroke-opacity:1;fill:#000000;fill-opacity:1"
         transform="scale(0.2) rotate(180) translate(6,0)" />
    </marker>
    <marker
       inkscape:stockid="Arrow1Lstart"
       orient="auto"
       refY="0.0"
       refX="0.0"
       id="marker5341"
       style="overflow:visible"
       inkscape:isstock="true">
      <path
         id="path5339"
         d="M 0.0,0.0 L 5.0,-5.0 L -12.5,0.0 L 5.0,5.0 L 0.0,0.0 z "
         style="fill-rule:evenodd;stroke:#000000;stroke-width:1pt;stroke-opacity:0.92477878;fill:#000000;fill-opacity:0.92477878"
         transform="scale(0.8) translate(12.5,0)" />
    </marker>
    <marker
       inkscape:stockid="Arrow1Lstart"
       orient="auto"
       refY="0.0"
       refX="0.0"
       id="marker5271"
       style="overflow:visible"
       inkscape:isstock="true">
      <path
         id="path5269"
         d="M 0.0,0.0 L 5.0,-5.0 L -12.5,0.0 L 5.0,5.0 L 0.0,0.0 z "
         style="fill-rule:evenodd;stroke:#000000;stroke-width:1pt;stroke-opacity:0.92477878;fill:#000000;fill-opacity:0.92477878"
         transform="scale(0.8) translate(12.5,0)" />
    </marker>
    <marker
       inkscape:stockid="Arrow1Lstart"
       orient="auto"
       refY="0.0"
       refX="0.0"
       id="marker5207"
       style="overflow:visible"
       inkscape:isstock="true">
      <path
         id="path5205"
         d="M 0.0,0.0 L 5.0,-5.0 L -12.5,0.0 L 5.0,5.0 L 0.0,0.0 z "
         style="fill-rule:evenodd;stroke:#000000;stroke-width:1pt;stroke-opacity:0.92477878;fill:#000000;fill-opacity:0.92477878"
         transform="scale(0.8) translate(12.5,0)" />
    </marker>
    <marker
       inkscape:stockid="Arrow1Lstart"
       orient="auto"
       refY="0.0"
       refX="0.0"
       id="marker5149"
       style="overflow:visible"
       inkscape:isstock="true">
      <path
         id="path5147"
         d="M 0.0,0.0 L 5.0,-5.0 L -12.5,0.0 L 5.0,5.0 L 0.0,0.0 z "
         style="fill-rule:evenodd;stroke:#000000;stroke-width:1pt;stroke-opacity:0.92477878;fill:#000000;fill-opacity:0.92477878"
         transform="scale(0.8) translate(12.5,0)" />
    </marker>
    <marker
       inkscape:stockid="Arrow1Lstart"
       orient="auto"
       refY="0.0"
       refX="0.0"
       id="marker5013"
       style="overflow:visible"
       inkscape:isstock="true">
      <path
         id="path5011"
         d="M 0.0,0.0 L 5.0,-5.0 L -12.5,0.0 L 5.0,5.0 L 0.0,0.0 z "
         style="fill-rule:evenodd;stroke:#000000;stroke-width:1pt;stroke-opacity:0.92477878;fill:#000000;fill-opacity:0.92477878"
         transform="scale(0.8) translate(12.5,0)" />
    </marker>
    <marker
       inkscape:stockid="Arrow1Lstart"
       orient="auto"
       refY="0.0"
       refX="0.0"
       id="marker4967"
       style="overflow:visible"
       inkscape:isstock="true">
      <path
         id="path4965"
         d="M 0.0,0.0 L 5.0,-5.0 L -12.5,0.0 L 5.0,5.0 L 0.0,0.0 z "
         style="fill-rule:evenodd;stroke:#000000;stroke-width:1pt;stroke-opacity:0.92477878;fill:#000000;fill-opacity:0.92477878"
         transform="scale(0.8) translate(12.5,0)" />
    </marker>
    <marker
       inkscape:stockid="Arrow1Lstart"
       orient="auto"
       refY="0.0"
       refX="0.0"
       id="marker4927"
       style="overflow:visible"
       inkscape:isstock="true">
      <path
         id="path4925"
         d="M 0.0,0.0 L 5.0,-5.0 L -12.5,0.0 L 5.0,5.0 L 0.0,0.0 z "
         style="fill-rule:evenodd;stroke:#000000;stroke-width:1pt;stroke-opacity:0.92477878;fill:#000000;fill-opacity:0.92477878"
         transform="scale(0.8) translate(12.5,0)" />
    </marker>
    <marker
       inkscape:stockid="Arrow1Lstart"
       orient="auto"
       refY="0.0"
       refX="0.0"
       id="marker4893"
       style="overflow:visible"
       inkscape:isstock="true">
      <path
         id="path4891"
         d="M 0.0,0.0 L 5.0,-5.0 L -12.5,0.0 L 5.0,5.0 L 0.0,0.0 z "
         style="fill-rule:evenodd;stroke:#000000;stroke-width:1pt;stroke-opacity:0.92477878;fill:#000000;fill-opacity:0.92477878"
         transform="scale(0.8) translate(12.5,0)" />
    </marker>
    <marker
       inkscape:stockid="Arrow1Lstart"
       orient="auto"
       refY="0.0"
       refX="0.0"
       id="marker4865"
       style="overflow:visible"
       inkscape:isstock="true">
      <path
         id="path4863"
         d="M 0.0,0.0 L 5.0,-5.0 L -12.5,0.0 L 5.0,5.0 L 0.0,0.0 z "
         style="fill-rule:evenodd;stroke:#000000;stroke-width:1pt;stroke-opacity:0.92477878;fill:#000000;fill-opacity:0.92477878"
         transform="scale(0.8) translate(12.5,0)" />
    </marker>
    <marker
       inkscape:stockid="Arrow1Lstart"
       orient="auto"
       refY="0.0"
       refX="0.0"
       id="marker4843"
       style="overflow:visible"
       inkscape:isstock="true">
      <path
         id="path4841"
         d="M 0.0,0.0 L 5.0,-5.0 L -12.5,0.0 L 5.0,5.0 L 0.0,0.0 z "
         style="fill-rule:evenodd;stroke:#000000;stroke-width:1pt;stroke-opacity:0.92477878;fill:#000000;fill-opacity:0.92477878"
         transform="scale(0.8) translate(12.5,0)" />
    </marker>
    <marker
       inkscape:stockid="Arrow1Lstart"
       orient="auto"
       refY="0.0"
       refX="0.0"
       id="Arrow1Lstart"
       style="overflow:visible"
       inkscape:isstock="true">
      <path
         id="path4559"
         d="M 0.0,0.0 L 5.0,-5.0 L -12.5,0.0 L 5.0,5.0 L 0.0,0.0 z "
         style="fill-rule:evenodd;stroke:#000000;stroke-width:1pt;stroke-opacity:0.92477878;fill:#000000;fill-opacity:0.92477878"
         transform="scale(0.8) translate(12.5,0)" />
    </marker>
    <marker
       inkscape:stockid="Arrow2Lend"
       orient="auto"
       refY="0"
       refX="0"
       id="Arrow2Lend-0"
       style="overflow:visible"
       inkscape:isstock="true">
      <path
         inkscape:connector-curvature="0"
         id="path4580-6"
         style="fill:#000000;fill-opacity:1;fill-rule:evenodd;stroke:#000000;stroke-width:0.625;stroke-linejoin:round;stroke-opacity:1"
         d="M 8.7185878,4.0337352 -2.2072895,0.01601326 8.7185884,-4.0017078 c -1.7454984,2.3720609 -1.7354408,5.6174519 -6e-7,8.035443 z"
         transform="matrix(-1.1,0,0,-1.1,-1.1,0)" />
    </marker>
    <marker
       inkscape:stockid="Arrow2Lend"
       orient="auto"
       refY="0"
       refX="0"
       id="Arrow2Lend-3"
       style="overflow:visible"
       inkscape:isstock="true">
      <path
         inkscape:connector-curvature="0"
         id="path4580-2"
         style="fill:#000000;fill-opacity:1;fill-rule:evenodd;stroke:#000000;stroke-width:0.625;stroke-linejoin:round;stroke-opacity:1"
         d="M 8.7185878,4.0337352 -2.2072895,0.01601326 8.7185884,-4.0017078 c -1.7454984,2.3720609 -1.7354408,5.6174519 -6e-7,8.035443 z"
         transform="matrix(-1.1,0,0,-1.1,-1.1,0)" />
    </marker>
    <marker
       inkscape:stockid="TriangleOutL"
       orient="auto"
       refY="0"
       refX="0"
       id="TriangleOutL-1"
       style="overflow:visible"
       inkscape:isstock="true">
      <path
         inkscape:connector-curvature="0"
         id="path4701-2"
         d="M 5.77,0 -2.88,5 V -5 Z"
         style="fill:#000000;fill-opacity:1;fill-rule:evenodd;stroke:#000000;stroke-width:1.00000003pt;stroke-opacity:1"
         transform="scale(0.8)" />
    </marker>
    <marker
       inkscape:stockid="TriangleOutL"
       orient="auto"
       refY="0"
       refX="0"
       id="TriangleOutL-3"
       style="overflow:visible"
       inkscape:isstock="true">
      <path
         inkscape:connector-curvature="0"
         id="path4701-4"
         d="M 5.77,0 -2.88,5 V -5 Z"
         style="fill:#000000;fill-opacity:1;fill-rule:evenodd;stroke:#000000;stroke-width:1.00000003pt;stroke-opacity:1"
         transform="scale(0.8)" />
    </marker>
  </defs>
  <sodipodi:namedview
     id="base"
     pagecolor="#ffffff"
     bordercolor="#666666"
     borderopacity="1.0"
     inkscape:pageopacity="0.0"
     inkscape:pageshadow="2"
     inkscape:zoom="0.49497475"
     inkscape:cx="15.632719"
     inkscape:cy="527.02573"
     inkscape:document-units="mm"
     inkscape:current-layer="ltx-render-layer"
     showgrid="false"
     width="298mm"
     units="mm"
     inkscape:window-width="1920"
     inkscape:window-height="991"
     inkscape:window-x="-9"
     inkscape:window-y="-9"
     inkscape:window-maximized="1">
    <inkscape:grid
       id="grid4518"
       type="xygrid" />
  </sodipodi:namedview>
  <metadata
     id="metadata5">
    <rdf:RDF>
      <cc:Work
         rdf:about="">
        <dc:format>image/svg+xml</dc:format>
        <dc:type
           rdf:resource="http://purl.org/dc/dcmitype/StillImage" />
        <dc:title></dc:title>
      </cc:Work>
    </rdf:RDF>
  </metadata>
  <g
     inkscape:label="Vrstva 1"
     inkscape:groupmode="layer"
     id="layer1"
     transform="translate(0,-87)">
    <rect
       style="opacity:1;vector-effect:none;fill:none;fill-opacity:1;fill-rule:evenodd;stroke:#000000;stroke-width:0.32219821;stroke-linecap:butt;stroke-linejoin:miter;stroke-miterlimit:4;stroke-dasharray:none;stroke-dashoffset:0;stroke-opacity:0.92477878"
       id="rect4520"
       width="26.458336"
       height="63.499989"
       x="58.208328"
       y="212.33334" />
    <rect
       style="opacity:1;vector-effect:none;fill:none;fill-opacity:1;fill-rule:evenodd;stroke:#000000;stroke-width:0.32219821;stroke-linecap:butt;stroke-linejoin:miter;stroke-miterlimit:4;stroke-dasharray:none;stroke-dashoffset:0;stroke-opacity:0.92477878"
       id="rect4520-8"
       width="26.458336"
       height="63.499989"
       x="126.9729"
       y="124.26488" />
    <circle
       style="fill:none;fill-opacity:1;fill-rule:nonzero;stroke:#000000;stroke-width:0.36500001;stroke-linejoin:miter;stroke-miterlimit:4;stroke-dasharray:none;stroke-dashoffset:0;stroke-opacity:0.92477878"
       id="path4557"
       cx="140.20207"
       cy="244.08334"
       r="13.229166" />
    <path
       style="fill:none;stroke:#000000;stroke-width:0.26458332px;stroke-linecap:butt;stroke-linejoin:miter;stroke-opacity:1;marker-end:url(#Arrow2Lend)"
       d="M 84.666667,244.088 H 127"
       id="path5465"
       inkscape:connector-curvature="0" />
    <path
       style="fill:none;stroke:#000000;stroke-width:0.26458332px;stroke-linecap:butt;stroke-linejoin:miter;stroke-opacity:1;marker-end:url(#Arrow2Lend-0)"
       d="m 153.45833,244.088 h 42.33334"
       id="path5465-5"
       inkscape:connector-curvature="0" />
    <path
       style="fill:none;stroke:#000000;stroke-width:0.26458332px;stroke-linecap:butt;stroke-linejoin:miter;stroke-opacity:1;marker-end:url(#Arrow2Lend-3)"
       d="m 140.19741,187.99168 v 42.33334"
       id="path5465-4"
       inkscape:connector-curvature="0" />
    <path
       style="fill:none;stroke:#000000;stroke-width:0.26458332px;stroke-linecap:butt;stroke-linejoin:miter;stroke-opacity:1;marker-end:url(#TriangleOutL)"
       d="m 30.162499,243.71608 26.458333,0.37798"
       id="path6826"
       inkscape:connector-curvature="0" />
    <path
       style="fill:none;stroke:#000000;stroke-width:0.26458332px;stroke-linecap:butt;stroke-linejoin:miter;stroke-opacity:1;marker-end:url(#TriangleOutL-3)"
       d="m 140.56933,96.343168 -0.37798,26.458352"
       id="path6826-7"
       inkscape:connector-curvature="0" />
    <text
       xml:space="preserve"
       style="font-style:normal;font-weight:normal;font-size:8.46666622px;line-height:1.25;font-family:sans-serif;letter-spacing:0px;word-spacing:0px;fill:#000000;fill-opacity:1;stroke:none;stroke-width:0.26458332"
       x="174.25972"
       y="99.755096"
       id="text5406"><tspan
         sodipodi:role="line"
         id="tspan5404"
         x="174.25972"
         y="107.47949"
         style="stroke-width:0.26458332" /></text>
  </g>
  <g
     inkscape:groupmode="layer"
     id="layer5"
     inkscape:label="Vrstva1.2" />
  <g
     inkscape:groupmode="layer"
     id="layer2"
     inkscape:label="Vrstva 2"
     style="display:none">
    <text
       xml:space="preserve"
       style="font-style:normal;font-weight:normal;font-size:9.87777805px;line-height:1.25;font-family:sans-serif;letter-spacing:0px;word-spacing:0px;fill:#000000;fill-opacity:1;stroke:none;stroke-width:0.26458332"
       x="26.080357"
       y="149.14584"
       id="text7852"><tspan
         sodipodi:role="line"
         id="tspan7850"
         x="26.080357"
         y="158.15764"
         style="font-size:9.87777805px;stroke-width:0.26458332" /></text>
    <flowRoot
       xml:space="preserve"
       id="flowRoot7858"
       style="font-style:normal;font-weight:normal;font-size:32px;line-height:1.25;font-family:sans-serif;letter-spacing:0px;word-spacing:0px;fill:#000000;fill-opacity:1;stroke:none"
       transform="scale(0.26458333)"><flowRegion
         id="flowRegion7860"><rect
           id="rect7862"
           width="7.1428571"
           height="35.714287"
           x="172.85715"
           y="503.70081" /></flowRegion><flowPara
         id="flowPara7864" /></flowRoot>    <flowRoot
       xml:space="preserve"
       id="flowRoot7870"
       style="font-style:normal;font-weight:normal;font-size:32px;line-height:1.25;font-family:sans-serif;letter-spacing:0px;word-spacing:0px;fill:#000000;fill-opacity:1;stroke:none"
       transform="scale(0.26458333)"><flowRegion
         id="flowRegion7872"><rect
           id="rect7874"
           width="230.14291"
           height="34.102329"
           x="531.28564"
           y="35.312759" /></flowRegion><flowPara
         id="flowPara7876">$\bold{u}$</flowPara></flowRoot>    <flowRoot
       xml:space="preserve"
       id="flowRoot7886"
       style="font-style:normal;font-weight:normal;font-size:32px;line-height:1.25;font-family:sans-serif;letter-spacing:0px;word-spacing:0px;fill:#000000;fill-opacity:1;stroke:none"
       transform="scale(0.26458333)"><flowRegion
         id="flowRegion7888"><rect
           id="rect7890"
           width="271.42856"
           height="97.14286"
           x="397.14285"
           y="767.98651" /></flowRegion><flowPara
         id="flowPara7892" /></flowRoot>    <text
       xml:space="preserve"
       style="font-style:normal;font-weight:normal;font-size:8.46666622px;line-height:1.25;font-family:sans-serif;letter-spacing:0px;word-spacing:0px;fill:#000000;fill-opacity:1;stroke:none;stroke-width:0.26458332"
       x="134.16931"
       y="52.845524"
       id="text7900"><tspan
         sodipodi:role="line"
         id="tspan7898"
         x="134.16931"
         y="52.845524"
         style="stroke-width:0.26458332">$\frac{\mathbf{C}}{\mathbf{D}}$</tspan></text>
    <text
       xml:space="preserve"
       style="font-style:normal;font-weight:normal;font-size:8.46666622px;line-height:1.25;font-family:sans-serif;letter-spacing:0px;word-spacing:0px;fill:#000000;fill-opacity:1;stroke:none;stroke-width:0.26458332"
       x="66.282845"
       y="151.2007"
       id="text7904"><tspan
         sodipodi:role="line"
         id="tspan7902"
         x="66.282845"
         y="151.2007"
         style="stroke-width:0.26458332">$\frac{\mathbf{B}}{\mathbf{F}}$</tspan></text>
    <text
       xml:space="preserve"
       style="font-style:normal;font-weight:normal;font-size:8.46666622px;line-height:1.25;font-family:sans-serif;letter-spacing:0px;word-spacing:0px;fill:#000000;fill-opacity:1;stroke:none;stroke-width:0.26458332"
       x="205.79753"
       y="140.50993"
       id="text7908"><tspan
         sodipodi:role="line"
         id="tspan7906"
         x="205.79753"
         y="140.50993"
         style="stroke-width:0.26458332">$\frac{\mathbf{1}}{\mathbf{A}}$</tspan></text>
  </g>
  <g
     inkscape:groupmode="layer"
     id="layer4"
     inkscape:label="Vrstva 3"
     style="display:none">
    <text
       xml:space="preserve"
       style="font-style:normal;font-weight:normal;font-size:8.46666622px;line-height:1.25;font-family:sans-serif;letter-spacing:0px;word-spacing:0px;display:inline;fill:#000000;fill-opacity:1;stroke:none;stroke-width:0.26458332"
       x="4.013679"
       y="144.0264"
       id="text7856-0"><tspan
         sodipodi:role="line"
         id="tspan7854-5"
         x="4.013679"
         y="144.0264"
         style="stroke-width:0.26458332">$\mathbf{u}$</tspan></text>
    <text
       xml:space="preserve"
       style="font-style:normal;font-weight:normal;font-size:8.46666622px;line-height:1.25;font-family:sans-serif;letter-spacing:0px;word-spacing:0px;display:inline;fill:#000000;fill-opacity:1;stroke:none;stroke-width:0.26458332"
       x="123.94929"
       y="15.202486"
       id="text7856-0-2"><tspan
         sodipodi:role="line"
         id="tspan7854-5-7"
         x="123.94929"
         y="15.202486"
         style="stroke-width:0.26458332">$\mathbf{e}$</tspan></text>
    <text
       xml:space="preserve"
       style="font-style:normal;font-weight:normal;font-size:8.46666622px;line-height:1.25;font-family:sans-serif;letter-spacing:0px;word-spacing:0px;display:inline;fill:#000000;fill-opacity:1;stroke:none;stroke-width:0.26458332"
       x="60.2808"
       y="137.01331"
       id="text7884-9"><tspan
         sodipodi:role="line"
         id="tspan7882-5"
         x="60.2808"
         y="137.01331"
         style="stroke-width:0.26458332">$\mathit{\omega}$</tspan></text>
    <text
       xml:space="preserve"
       style="font-style:normal;font-weight:normal;font-size:8.46666622px;line-height:1.25;font-family:sans-serif;letter-spacing:0px;word-spacing:0px;display:inline;fill:#000000;fill-opacity:1;stroke:none;stroke-width:0.26458332"
       x="125.85258"
       y="131.69066"
       id="text7896-6"><tspan
         sodipodi:role="line"
         id="tspan7894-4"
         x="125.85258"
         y="131.69066"
         style="stroke-width:0.26458332">$\mathit{\upsilon}$</tspan></text>
    <text
       xml:space="preserve"
       style="font-style:normal;font-weight:normal;font-size:8.46666622px;line-height:1.25;font-family:sans-serif;letter-spacing:0px;word-spacing:0px;display:inline;fill:#000000;fill-opacity:1;stroke:none;stroke-width:0.26458332"
       x="212.65755"
       y="144.51959"
       id="text7868-1"><tspan
         sodipodi:role="line"
         id="tspan7866-2"
         x="212.65755"
         y="144.51959"
         style="stroke-width:0.26458332">$\mathbf{y}$</tspan></text>
  </g>
  <g
     rendltx:active_layer="layer4"
     rendltx:math="False"
     rendltx:newline="False"
     rendltx:fontsize="23.0"
     rendltx:depth="0.0"
     rendltx:scale="2.0"
     rendltx:packages="amsmath,amssymb"
     rendltx:preamble="C:\Users\krean\Desktop\preambule.tex"
     id="ltx-render-layer"
     inkscape:groupmode="layer"
     inkscape:label="Rendered Latex">
    <g
       transform="matrix(0.352778,0,0,0.352778,133.41442,82.814246)"
       id="lx-text7900">
      <defs
         id="defs5800">
        <g
           id="g5798">
          <symbol
             overflow="visible"
             id="lx-text7900-glyph0-0"
             style="overflow:visible">
            <path
               style="stroke:none"
               d=""
               id="path5789"
               inkscape:connector-curvature="0" />
          </symbol>
          <symbol
             overflow="visible"
             id="lx-text7900-glyph0-1"
             style="overflow:visible">
            <path
               style="stroke:none"
               d="m 33.421875,-10.171875 c 0,-0.765625 -0.265625,-0.8125 -0.9375,-0.8125 -0.4375,0 -0.890625,0 -0.9375,0.5 -0.40625,6.78125 -6.15625,9.09375 -10.171875,9.09375 C 18.46875,-1.390625 14.546875,-2.1875 12.046875,-5 10.484375,-6.6875 9.0625,-9.140625 9.0625,-15.3125 c 0,-4.359375 0.671875,-7.625 2.765625,-10.125 2.859375,-3.34375 7.3125,-3.796875 9.453125,-3.796875 3.359375,0 8.75,1.875 10.09375,9.734375 0.07813,0.40625 0.484375,0.40625 1.015625,0.40625 1.03125,0 1.03125,-0.09375 1.03125,-1.171875 v -9.71875 c 0,-1.03125 0,-1.15625 -0.984375,-1.15625 l -3.34375,3.203125 c -2.5,-2.140625 -5.484375,-3.203125 -8.796875,-3.203125 -10.65625,0 -17.53125,6.46875 -17.53125,15.828125 0,9.203125 6.65625,15.84375 17.578125,15.84375 7.953125,0 13.078125,-5.4375 13.078125,-10.703125 z m 0,0"
               id="path5792"
               inkscape:connector-curvature="0" />
          </symbol>
          <symbol
             overflow="visible"
             id="lx-text7900-glyph0-2"
             style="overflow:visible">
            <path
               style="stroke:none"
               d="m 35.65625,-15.03125 c 0,-10.09375 -6.78125,-15.578125 -15.171875,-15.578125 H 1.703125 v 1.921875 h 4.71875 V -1.921875 H 1.703125 V 0 h 18.78125 c 8.5625,0 15.171875,-5.484375 15.171875,-15.03125 z m -6.0625,-0.04687 c 0,5.21875 -0.671875,7.53125 -2.234375,9.640625 -1.5625,2.046875 -4.5625,3.515625 -8.578125,3.515625 h -6.6875 V -28.6875 h 6.6875 c 3.890625,0 7.015625,1.515625 8.65625,3.828125 1.296875,1.828125 2.15625,4.015625 2.15625,9.78125 z m 0,0"
               id="path5795"
               inkscape:connector-curvature="0" />
          </symbol>
        </g>
      </defs>
      <g
         id="lx-text7900-surface1">
        <g
           style="fill:#000000;fill-opacity:1"
           id="g5804">
          <use
             xlink:href="#lx-text7900-glyph0-1"
             x="1.11"
             y="-47.091999"
             id="use5802"
             width="100%"
             height="100%" />
        </g>
        <path
           style="fill:none;stroke:#000000;stroke-width:0.398;stroke-linecap:butt;stroke-linejoin:miter;stroke-miterlimit:10;stroke-opacity:1"
           d="M -8.125e-4,-7.1875e-4 H 19.241375"
           transform="matrix(2,0,0,-2,0,-37.928)"
           id="path5806"
           inkscape:connector-curvature="0" />
        <g
           style="fill:#000000;fill-opacity:1"
           id="g5810">
          <use
             xlink:href="#lx-text7900-glyph0-2"
             x="0"
             y="0"
             id="use5808"
             width="100%"
             height="100%" />
        </g>
      </g>
    </g>
    <g
       transform="matrix(0.352778,0,0,0.352778,65.141809,154.17598)"
       id="lx-text7904">
      <defs
         id="defs5825">
        <g
           id="g5823">
          <symbol
             overflow="visible"
             id="lx-text7904-glyph0-0"
             style="overflow:visible">
            <path
               style="stroke:none"
               d=""
               id="path5814"
               inkscape:connector-curvature="0" />
          </symbol>
          <symbol
             overflow="visible"
             id="lx-text7904-glyph0-1"
             style="overflow:visible">
            <path
               style="stroke:none"
               d="m 32.890625,-8.25 c 0,-4.25 -3.703125,-7.328125 -9.109375,-7.71875 6.4375,-1.21875 7.671875,-4.875 7.671875,-6.96875 0,-4.109375 -3.734375,-7.671875 -10.875,-7.671875 H 1.734375 V -28.6875 H 6.46875 V -1.921875 H 1.734375 V 0 H 21.90625 c 7.375,0 10.984375,-3.96875 10.984375,-8.25 z M 25.5625,-22.984375 c 0,3.125 -1.734375,6.34375 -6.953125,6.34375 h -6.65625 V -28.6875 h 8.078125 c 4.609375,0 5.53125,3.46875 5.53125,5.703125 z m 1.25,14.640625 c 0,2.8125 -1.515625,6.421875 -6.640625,6.421875 h -8.21875 v -13.25 h 8.890625 c 5.21875,0 5.96875,4.8125 5.96875,6.828125 z m 0,0"
               id="path5817"
               inkscape:connector-curvature="0" />
          </symbol>
          <symbol
             overflow="visible"
             id="lx-text7904-glyph0-2"
             style="overflow:visible">
            <path
               style="stroke:none"
               d="M 29.40625,-19.8125 28.109375,-30.390625 H 1.703125 v 1.921875 h 4.71875 V -1.921875 H 1.703125 V 0 c 1.28125,-0.09375 6.375,-0.09375 8.03125,-0.09375 L 18.25,0 v -1.921875 h -5.9375 v -12.3125 h 2.453125 c 4.296875,0 4.640625,1.96875 4.640625,5.21875 h 1.875 V -21.375 h -1.875 c 0,3.25 -0.34375,5.21875 -4.640625,5.21875 H 12.3125 v -12.3125 h 6.390625 c 7.09375,0 8.203125,3.25 8.828125,8.65625 z m 0,0"
               id="path5820"
               inkscape:connector-curvature="0" />
          </symbol>
        </g>
      </defs>
      <g
         id="lx-text7904-surface1">
        <g
           style="fill:#000000;fill-opacity:1"
           id="g5829">
          <use
             xlink:href="#lx-text7904-glyph0-1"
             x="0"
             y="0"
             id="use5827"
             width="100%"
             height="100%" />
        </g>
        <path
           style="fill:none;stroke:#000000;stroke-width:0.398;stroke-linecap:butt;stroke-linejoin:miter;stroke-miterlimit:10;stroke-opacity:1"
           d="M -8.125e-4,-7.1875e-4 H 17.846844"
           transform="matrix(2,0,0,-2,0,9.164)"
           id="path5831"
           inkscape:connector-curvature="0" />
        <g
           style="fill:#000000;fill-opacity:1"
           id="g5835">
          <use
             xlink:href="#lx-text7904-glyph0-2"
             x="2.066"
             y="47.091999"
             id="use5833"
             width="100%"
             height="100%" />
        </g>
      </g>
    </g>
    <g
       id="lx-text7856-0"
       transform="matrix(0.352778,0,0,0.352778,20.108943,151.47429)">
      <defs
         id="defs6366">
        <g
           id="g6364">
          <symbol
             id="lx-text7856-0-glyph0-0"
             overflow="visible"
             style="overflow:visible">
            <path
               id="path6358"
               d=""
               style="stroke:none"
               inkscape:connector-curvature="0" />
          </symbol>
          <symbol
             id="lx-text7856-0-glyph0-1"
             overflow="visible"
             style="overflow:visible">
            <path
               id="path6361"
               d="m 27.5,0 v -1.96875 c -2.84375,0 -3.171875,0 -3.171875,-1.796875 V -20.625 l -8.15625,0.375 v 1.96875 c 2.84375,0 3.171875,0 3.171875,1.78125 v 8.984375 c 0,3.484375 -2.0625,6.28125 -5.640625,6.28125 -3.4375,0 -3.625,-1.15625 -3.625,-3.671875 V -20.625 l -8.15625,0.375 v 1.96875 c 2.84375,0 3.171875,0 3.171875,1.78125 v 10.859375 c 0,4.59375 3.0625,5.921875 7.96875,5.921875 1.09375,0 4.484375,0 6.453125,-3.71875 h 0.04687 v 3.71875 z m 0,0"
               style="stroke:none"
               inkscape:connector-curvature="0" />
          </symbol>
        </g>
      </defs>
      <g
         id="lx-text7856-0-surface1">
        <g
           id="g6370"
           style="fill:#000000;fill-opacity:1">
          <use
             id="use6368"
             y="0"
             x="0"
             xlink:href="#lx-text7856-0-glyph0-1"
             width="100%"
             height="100%" />
        </g>
      </g>
    </g>
    <g
       id="lx-text7856-0-2"
       transform="matrix(0.352778,0,0,0.352778,143.44233,13.383579)">
      <defs
         id="defs6382">
        <g
           id="g6380">
          <symbol
             id="lx-text7856-0-2-glyph0-0"
             overflow="visible"
             style="overflow:visible">
            <path
               id="path6374"
               d=""
               style="stroke:none"
               inkscape:connector-curvature="0" />
          </symbol>
          <symbol
             id="lx-text7856-0-2-glyph0-1"
             overflow="visible"
             style="overflow:visible">
            <path
               id="path6377"
               d="m 22.046875,-5.359375 c 0,-0.6875 -0.6875,-0.6875 -0.96875,-0.6875 -0.734375,0 -0.78125,0.140625 -1.046875,0.734375 -1.203125,2.96875 -4.21875,3.9375 -6.421875,3.9375 -6.640625,0 -6.6875,-6.1875 -6.6875,-8.75 H 20.71875 c 1.046875,0 1.328125,0 1.328125,-1.15625 0,-1.375 -0.328125,-4.796875 -2.4375,-6.953125 -1.921875,-1.9375 -4.484375,-2.53125 -7.140625,-2.53125 -7.15625,0 -11.046875,4.6875 -11.046875,10.453125 0,6.421875 4.71875,10.59375 11.640625,10.59375 6.921875,0 8.984375,-4.859375 8.984375,-5.640625 z m -4.21875,-6.09375 H 6.921875 C 7.015625,-13.34375 7.0625,-15.125 8.015625,-16.765625 8.890625,-18.234375 10.5,-19.25 12.46875,-19.25 c 4.90625,0 5.3125,5.5 5.359375,7.796875 z m 0,0"
               style="stroke:none"
               inkscape:connector-curvature="0" />
          </symbol>
        </g>
      </defs>
      <g
         id="lx-text7856-0-2-surface1">
        <g
           id="g6386"
           style="fill:#000000;fill-opacity:1">
          <use
             id="use6384"
             y="0"
             x="0"
             xlink:href="#lx-text7856-0-2-glyph0-1"
             width="100%"
             height="100%" />
        </g>
      </g>
    </g>
    <g
       id="lx-text7884-9"
       transform="matrix(0.352778,0,0,0.352778,101.1652,151.41365)">
      <defs
         id="defs6398">
        <g
           id="g6396">
          <symbol
             id="lx-text7884-9-glyph0-0"
             overflow="visible"
             style="overflow:visible">
            <path
               id="path6390"
               d=""
               style="stroke:none"
               inkscape:connector-curvature="0" />
          </symbol>
          <symbol
             id="lx-text7884-9-glyph0-1"
             overflow="visible"
             style="overflow:visible">
            <path
               id="path6393"
               d="m 26.078125,-11 c 0.5,-1.96875 1.09375,-4.3125 1.09375,-6.1875 0,-1.09375 -0.21875,-2.0625 -0.828125,-2.65625 -0.265625,-0.234375 -0.640625,-0.359375 -1,-0.359375 -0.5,0 -1.015625,0.21875 -1.421875,0.640625 -0.40625,0.40625 -0.640625,0.90625 -0.640625,1.375 0,0.359375 0.140625,0.734375 0.40625,1 1.109375,1.015625 1.65625,2.484375 1.65625,4.125 0,0.59375 -0.09375,1.234375 -0.234375,1.875 C 24.0625,-6.921875 21.5,-2.515625 17.78125,-2.515625 c -2.65625,0 -4.125,-1.9375 -4.4375,-4.5 0.546875,-1.28125 1,-2.65625 1.328125,-3.984375 0.07813,-0.40625 0.171875,-0.875 0.171875,-1.28125 0,-0.546875 -0.171875,-0.96875 -0.734375,-0.96875 -0.8125,0 -1.1875,1.109375 -1.421875,2.0625 -0.359375,1.375 -0.59375,2.75 -0.640625,4.078125 -1.5,2.625 -3.703125,4.59375 -6.3125,4.59375 -2.75,0 -3.953125,-2.296875 -3.953125,-5.1875 C 1.78125,-8.75 1.96875,-9.859375 2.25,-11 c 0.6875,-2.75 2.234375,-5.359375 4.03125,-7.828125 0.09375,-0.1875 0.140625,-0.328125 0.140625,-0.515625 0,-0.21875 -0.09375,-0.453125 -0.328125,-0.59375 -0.140625,-0.04687 -0.3125,-0.04687 -0.3125,-0.04687 -0.28125,0 -0.5625,0.140625 -0.734375,0.375 -1.890625,2.65625 -3.078125,5.546875 -3.8125,8.421875 -0.453125,1.84375 -0.6875,3.671875 -0.6875,5.328125 0,3.5625 1.234375,6.3125 4.625,6.3125 2.9375,0 5.28125,-2.15625 7.015625,-5.078125 0.421875,2.96875 1.921875,5.078125 5.046875,5.078125 4.71875,0 7.46875,-5.90625 8.84375,-11.453125 z m 0,0"
               style="stroke:none"
               inkscape:connector-curvature="0" />
          </symbol>
        </g>
      </defs>
      <g
         id="lx-text7884-9-surface1">
        <g
           id="g6402"
           style="fill:#000000;fill-opacity:1">
          <use
             id="use6400"
             y="0"
             x="0"
             xlink:href="#lx-text7884-9-glyph0-1"
             width="100%"
             height="100%" />
        </g>
      </g>
    </g>
    <g
       id="lx-text7896-6"
       transform="matrix(0.352778,0,0,0.352778,143.50848,125.86319)">
      <defs
         id="defs6414">
        <g
           id="g6412">
          <symbol
             id="lx-text7896-6-glyph0-0"
             overflow="visible"
             style="overflow:visible">
            <path
               id="path6406"
               d=""
               style="stroke:none"
               inkscape:connector-curvature="0" />
          </symbol>
          <symbol
             id="lx-text7896-6-glyph0-1"
             overflow="visible"
             style="overflow:visible">
            <path
               id="path6409"
               d="m 23.46875,-17.140625 c 0,-2.796875 -1.421875,-3.0625 -1.84375,-3.0625 -1.09375,0 -2.109375,1.09375 -2.109375,2.015625 0,0.546875 0.328125,0.859375 0.5625,1.046875 0.40625,0.40625 1.59375,1.65625 1.59375,4.03125 0,3.078125 -3.703125,12.65625 -9.578125,12.65625 -0.265625,0 -2.109375,0 -3.296875,-1.15625 C 7.96875,-2.46875 7.65625,-3.625 7.65625,-4.953125 c 0,-1.78125 0.546875,-3.984375 2.328125,-8.609375 0.5625,-1.515625 0.78125,-2.109375 0.78125,-2.984375 0,-1.921875 -1.375,-3.65625 -3.609375,-3.65625 -4.21875,0 -5.921875,6.640625 -5.921875,7 0,0.1875 0.1875,0.421875 0.5,0.421875 0.421875,0 0.46875,-0.1875 0.65625,-0.828125 1.140625,-4.03125 2.921875,-5.6875 4.625,-5.6875 0.453125,0 1.1875,0.04687 1.1875,1.515625 0,0.234375 0,1.1875 -0.78125,3.203125 -2.5625,6.734375 -2.5625,7.9375 -2.5625,9.125 0,4.578125 3.703125,5.90625 7.109375,5.90625 3.796875,0 6.265625,-3.15625 7.46875,-4.90625 3.25,-4.765625 4.03125,-11.21875 4.03125,-12.6875 z m 0,0"
               style="stroke:none"
               inkscape:connector-curvature="0" />
          </symbol>
        </g>
      </defs>
      <g
         id="lx-text7896-6-surface1">
        <g
           id="g6418"
           style="fill:#000000;fill-opacity:1">
          <use
             id="use6416"
             y="0"
             x="0"
             xlink:href="#lx-text7896-6-glyph0-1"
             width="100%"
             height="100%" />
        </g>
      </g>
    </g>
    <g
       id="lx-text7868-1"
       transform="matrix(0.352778,0,0,0.352778,197.16902,148.33787)">
      <defs
         id="defs6430">
        <g
           id="g6428">
          <symbol
             id="lx-text7868-1-glyph0-0"
             overflow="visible"
             style="overflow:visible">
            <path
               id="path6422"
               d=""
               style="stroke:none"
               inkscape:connector-curvature="0" />
          </symbol>
          <symbol
             id="lx-text7868-1-glyph0-1"
             overflow="visible"
             style="overflow:visible">
            <path
               id="path6425"
               d="m 26.078125,-18.375 v -1.96875 c -1.5625,0.09375 -1.75,0.09375 -3.625,0.09375 l -3.9375,-0.09375 v 1.96875 c 0,0 2.203125,0 2.203125,0.59375 0,0.140625 -0.140625,0.40625 -0.1875,0.546875 L 15.171875,-5.6875 9.296875,-18.375 h 2.53125 v -1.96875 c -1.109375,0.09375 -4.21875,0.09375 -5.5,0.09375 -1.328125,0 -4.03125,0 -5.234375,-0.09375 v 1.96875 h 2.9375 L 12.515625,0 c -0.234375,0.546875 -0.875,1.875 -1.109375,2.421875 -0.953125,2.0625 -2.421875,5.234375 -5.625,5.234375 -0.1875,0 -0.734375,0 -1.25,-0.28125 C 4.625,7.328125 6,6.78125 6,5.046875 6,3.53125 4.90625,2.5625 3.53125,2.5625 c -1.421875,0 -2.515625,0.96875 -2.515625,2.53125 0,2.140625 2.015625,4.078125 4.765625,4.078125 3.75,0 6.21875,-3.390625 7.140625,-5.40625 L 22.6875,-17.375 c 0.265625,-0.640625 0.453125,-1 3.390625,-1 z m 0,0"
               style="stroke:none"
               inkscape:connector-curvature="0" />
          </symbol>
        </g>
      </defs>
      <g
         id="lx-text7868-1-surface1">
        <g
           id="g6434"
           style="fill:#000000;fill-opacity:1">
          <use
             id="use6432"
             y="0"
             x="0"
             xlink:href="#lx-text7868-1-glyph0-1"
             width="100%"
             height="100%" />
        </g>
      </g>
    </g>
  </g>
</svg>
